<svg width="166" height="39" viewBox="0 0 166 39" fill="none" xmlns="http://www.w3.org/2000/svg">
<path d="M1.68328 1.50657H10.6112V15.8513H10.9263C23.7006 6.28815 30.2877 1.50657 30.6879 1.50657H42.4818V2.13678C40.9413 2.82701 33.0787 8.35384 18.894 18.7173C33.0687 28.4305 41.8866 34.6975 45.3477 37.5185V37.8336H32.9236C31.8533 37.8336 25.9013 33.5872 15.0677 25.0944C14.9577 25.0944 13.7873 24.4542 11.5565 23.1737C9.80597 24.9343 6.51488 27.2701 1.68328 30.1811V1.50657Z" fill="#0057FF"/>
<path d="M51.4785 9.19287H53.5122V12.4604H53.584C56.4938 10.2821 57.9943 9.19287 58.0854 9.19287H60.772V9.33643C60.4211 9.49365 58.63 10.7526 55.3989 13.1133C58.6278 15.3258 60.6364 16.7534 61.4248 17.396V17.4678H58.5947C58.3509 17.4678 56.9951 16.5005 54.5273 14.5659C54.5023 14.5659 54.2357 14.4201 53.7275 14.1284C53.3288 14.5295 52.5791 15.0615 51.4785 15.7246V9.19287ZM64.224 9.26465H66.1859V17.396H64.224V9.26465ZM70.3386 9.19287H77.8889C78.8573 9.19287 79.3415 9.86963 79.3415 11.2231V12.4604C79.3415 13.3491 79.0749 13.929 78.5417 14.2002C78.086 14.2982 77.7237 14.3472 77.4548 14.3472H76.4363V14.4189C76.7575 14.5944 77.9926 15.5868 80.1413 17.396V17.4678H77.4548C76.8669 16.9779 75.7287 15.9377 74.0403 14.3472H72.9533V12.8945H76.4363C76.9922 12.8945 77.3067 12.7738 77.3796 12.5322V11.0078C77.3067 10.7663 76.9922 10.6455 76.4363 10.6455H72.3005V17.4678H70.3386V9.19287ZM83.3848 9.26465H85.3468V17.396H83.3848V9.26465ZM91.5639 9.26465H96.6464C97.9042 9.26465 98.5331 9.77279 98.5331 10.7891H91.4204L91.4921 10.9326V15.6528L91.4204 15.7998H98.5331V15.8716C98.5331 16.8879 97.9772 17.396 96.8652 17.396H90.9829C89.9666 17.396 89.4584 16.6702 89.4584 15.2188V11.4419C89.4584 10.3117 89.7 9.65885 90.183 9.4834C90.477 9.33757 90.9373 9.26465 91.5639 9.26465ZM101.93 9.26465H103.892V12.3853H109.771V9.4082C109.787 9.3125 109.836 9.26465 109.918 9.26465H111.805V17.396H109.771V13.9097H103.892V17.396H101.93V9.26465ZM115.927 9.26465H124.421V10.5703C124.421 10.6683 124.373 10.7173 124.277 10.7173H117.889V12.4604H121.662V13.9097H117.889V15.7998H124.349C124.444 15.8135 124.492 15.8613 124.492 15.9434V17.396H115.927V9.26465ZM128.064 9.19287H129.226C129.481 9.19287 130.425 9.94255 132.056 11.4419C132.154 11.4419 133.413 12.4832 135.833 14.5659C135.833 14.6343 135.906 14.7061 136.052 14.7812C136.002 13.6419 135.977 12.7954 135.977 12.2417V9.19287H137.792V17.4678H136.486L129.807 11.8794V17.4678H128.064V9.19287ZM141.842 9.19287H143.875V12.4604H143.947C146.857 10.2821 148.357 9.19287 148.449 9.19287H151.135V9.33643C150.784 9.49365 148.993 10.7526 145.762 13.1133C148.991 15.3258 151 16.7534 151.788 17.396V17.4678H148.958C148.714 17.4678 147.358 16.5005 144.891 14.5659C144.865 14.5659 144.599 14.4201 144.091 14.1284C143.692 14.5295 142.942 15.0615 141.842 15.7246V9.19287ZM156.276 9.19287H163.317C164.285 9.3068 164.769 9.79102 164.769 10.6455V15.6528C164.769 16.8149 164.285 17.396 163.317 17.396C163.317 17.4438 163.147 17.4678 162.807 17.4678H156.566C155.404 17.3994 154.823 17.134 154.823 16.6714C154.677 16.6714 154.604 16.3319 154.604 15.6528V10.8608C154.604 9.74886 155.161 9.19287 156.276 9.19287ZM156.566 10.7173V15.8716H162.807V10.7173H156.566Z" fill="white"/>
<path d="M53.0508 20.1929H58.4956C59.6076 20.1929 60.1636 20.6771 60.1636 21.6455H53.1226V23.3853H58.5674C59.7295 23.3853 60.3105 23.9902 60.3105 25.2002V26.2905C60.3105 27.6463 59.9471 28.3242 59.2202 28.3242C59.2202 28.4199 58.9297 28.4678 58.3486 28.4678H52.9038C51.646 28.4678 51.0171 27.9357 51.0171 26.8716H58.5674V24.9849H52.979C51.9126 24.9849 51.3794 24.3799 51.3794 23.1699V21.9326C51.3794 20.7728 51.9365 20.1929 53.0508 20.1929ZM63.5267 20.3364H73.1107V21.7891H69.3338V28.4678H67.4471C67.3514 28.4678 67.3036 28.4199 67.3036 28.3242V21.7891H63.6703C63.5746 21.7891 63.5267 21.7412 63.5267 21.6455V20.3364ZM76.4294 20.2646H78.4631V26.9434H83.8362V20.2646H85.7946V26.8716C85.7946 27.7603 85.4323 28.2923 84.7077 28.4678C84.2953 28.5156 83.9558 28.5396 83.6892 28.5396H78.6067C77.203 28.5396 76.5012 28.0314 76.5012 27.0151C76.4533 26.8055 76.4294 26.4432 76.4294 25.9282V20.2646ZM89.8448 20.2646H95.0709C97.5227 20.2646 99.0483 21.0872 99.6475 22.7324C99.7911 23.1243 99.8629 23.4878 99.8629 23.8228V24.5474C99.8629 26.0695 99.1371 27.2077 97.6856 27.9619C97.0476 28.2513 96.3219 28.396 95.5084 28.396H89.8448V20.2646ZM91.8067 21.7891V26.7998H94.565C96.7434 26.7998 97.8326 26.0251 97.8326 24.4756V24.0381C97.8326 23.0059 97.3484 22.304 96.38 21.9326C96.0154 21.8369 95.6759 21.7891 95.3614 21.7891H91.8067ZM103.739 20.2646H105.701V28.396H103.739V20.2646ZM111.402 20.1929H118.443C119.411 20.3068 119.895 20.791 119.895 21.6455V26.6528C119.895 27.8149 119.411 28.396 118.443 28.396C118.443 28.4438 118.273 28.4678 117.933 28.4678H111.692C110.53 28.3994 109.949 28.134 109.949 27.6714C109.803 27.6714 109.73 27.3319 109.73 26.6528V21.8608C109.73 20.7489 110.287 20.1929 111.402 20.1929ZM111.692 21.7173V26.8716H117.933V21.7173H111.692Z" fill="white"/>
</svg>
